<svg xmlns="http://www.w3.org/2000/svg" viewBox="0 0 95.11 40.95"><defs><style>.cls-1{fill:#858585;}</style></defs><title>g6349</title><g id="Layer_2" data-name="Layer 2"><g id="Layer_1-2" data-name="Layer 1"><g id="g6349"><g id="g6351"><path id="path6353" class="cls-1" d="M11.55,11.19v5.32H22.8V27.64H11.55V40.83H0V.06A.05.05,0,0,1,.06,0h24.5l.79,11.19Z"/><path id="path6355" class="cls-1" d="M58.33,6.28a19.5,19.5,0,0,1,5.75,14.16,19.58,19.58,0,0,1-5.75,14.23,18.72,18.72,0,0,1-13.87,5.87,18.77,18.77,0,0,1-13.93-5.87,19.54,19.54,0,0,1-5.75-14.23A19.46,19.46,0,0,1,30.53,6.28,18.74,18.74,0,0,1,44.46.41,18.68,18.68,0,0,1,58.33,6.28ZM41.14,28.62a3.25,3.25,0,0,0,1,2.38,3.31,3.31,0,0,0,2.43,1A3.21,3.21,0,0,0,47,31a3.34,3.34,0,0,0,1-2.38V12.09a3.37,3.37,0,0,0-1-2.43,3.18,3.18,0,0,0-2.4-1,3.45,3.45,0,0,0-3.44,3.44V28.62Z"/><path id="path6357" class="cls-1" d="M82.11,41,76.3,30.61,70.67,41H58l12.1-21.17L58.64,0H71.7l4.78,8.83L81.32,0H94L82.77,19.66,95.11,41Z"/></g></g></g></g></svg>