<svg xmlns="http://www.w3.org/2000/svg" viewBox="0 0 145.59 48.34"><defs><style>.cls-1{fill:#858585;}</style></defs><title>Asset 16</title><g id="Layer_2" data-name="Layer 2"><g id="Layer_1-2" data-name="Layer 1"><path class="cls-1" d="M125.81,28.2a3.59,3.59,0,0,1-1.53,2.72c14-6.32,22.27-13.36,21.22-19.41-2-11.37-36.13-14.92-76.29-7.92C51.65,6.65,35.85,11.22,23.79,16.34A8.71,8.71,0,0,1,26,16.09c2.14,0,5.08.51,5.08,3.79v1.06H27.28V20a1.29,1.29,0,0,0-1.4-1.37,1.24,1.24,0,0,0-1.38,1,1.78,1.78,0,0,0,0,.79c.42,1.76,6.14,2.7,6.77,5.85a7.62,7.62,0,0,1,0,2.48c-.36,2.51-2.6,3.44-5.33,3.44s-5.47-1-5.47-4.37V26.67h4v1.46a1.35,1.35,0,0,0,1.52,1.37,1.3,1.3,0,0,0,1.46-1,2,2,0,0,0,0-1.12c-.78-1.95-6.12-2.84-6.78-5.91a5.21,5.21,0,0,1,0-2,3.42,3.42,0,0,1,1.47-2.37C7.65,23.46-1,30.66.09,36.83c2,11.37,36.14,14.92,76.29,7.92,17.92-3.12,34-7.81,46.13-13.06a8.63,8.63,0,0,1-2,.22c-2.67,0-5-1-5.3-3.71,0-.51,0-.71,0-1V20.87c0-.27,0-.74.06-1,.34-2.81,2.62-3.72,5.29-3.72s5,.9,5.29,3.72c0,.48,0,1,0,1v.5H122v-.84a3,3,0,0,0,0-.58,1.58,1.58,0,0,0-3,0,3.17,3.17,0,0,0-.07.71v6.89a3.48,3.48,0,0,0,0,.57,1.39,1.39,0,0,0,1.53,1.08A1.41,1.41,0,0,0,122,28.12a2.79,2.79,0,0,0,0-.58V25.36h-1.54v-2.2h5.34v4C125.86,27.49,125.85,27.69,125.81,28.2ZM42.05,31.61,40.05,18H40L37.9,31.61H33.84l2.79-15h6.69L46.1,31.61Zm20,0L62,18.08H61.9L59.39,31.61H55.57L53.05,18.08H53l-.09,13.53H49.1l.34-15h6.14l1.86,11.51h.08l1.86-11.51h6.14l.32,15.05Zm18.13-2.89c-.35,2.49-2.57,3.41-5.27,3.41s-5.42-1-5.42-4.33V26.65h4V28.1A1.34,1.34,0,0,0,75,29.45a1.29,1.29,0,0,0,1.45-1,2,2,0,0,0,0-1.1c-.77-1.93-6.06-2.81-6.71-5.85a5.26,5.26,0,0,1,0-2c.39-2.44,2.56-3.31,5.21-3.31,2.12,0,5,.51,5,3.75v1H76.22v-.92a1.26,1.26,0,0,0-1.38-1.35,1.23,1.23,0,0,0-1.37,1,2.08,2.08,0,0,0,0,.78c.42,1.74,6.07,2.68,6.71,5.8A7.45,7.45,0,0,1,80.21,28.72Zm14.13-.38c-.27,2.81-2.49,3.72-5.25,3.72s-5-.91-5.26-3.72c0-.14,0-.71,0-1V16.56h3.8V27.69a3.45,3.45,0,0,0,0,.58,1.5,1.5,0,0,0,2.89,0,3.4,3.4,0,0,0,0-.57V16.56h3.8V27.35A9.45,9.45,0,0,1,94.34,28.34Zm16.89,3.12h-5.36l-3.72-12.23h-.08l.21,12.23H98.57V16.56h5.59l3.46,11.82h.08l-.2-11.82h3.73Z"/></g></g></svg>