<svg width="204" height="60.00000000000001" xmlns="http://www.w3.org/2000/svg" xmlns:svg="http://www.w3.org/2000/svg">
 <defs>
  <style>.cls-2{opacity:0.84;}.cls-1{fill:#B7B5CA;}</style>
 </defs>
 <g>
  <title>Layer 1</title>
  <g stroke="null" id="svg_1" class="cls-2">
   <g stroke="null" id="svg_2" class="cls-1">
    <path stroke="null" id="svg_3" d="m65.75352,45.64415l2.51547,-5.84238c2.71833,2.02861 6.32925,3.08348 9.8996,3.08348c2.63719,0 4.30064,-1.0143 4.30064,-2.55604c-0.04057,-4.30064 -15.78255,-0.93316 -15.90427,-11.72534c-0.04057,-5.47724 4.82808,-9.69674 11.72534,-9.69674c4.09778,0 8.19557,1.0143 11.11676,3.32691l-2.35318,5.9641c-2.67776,-1.70403 -6.00467,-2.92119 -9.1693,-2.92119c-2.15032,0 -3.57035,1.0143 -3.57035,2.31261c0.04057,4.2195 15.90427,1.90689 16.06656,12.21221c0,5.59895 -4.74694,9.53445 -11.56305,9.53445c-4.99037,0 -9.57502,-1.17659 -13.06422,-3.69206"/>
    <path stroke="null" id="svg_4" d="m162.27458,37.69201c-1.25774,2.19089 -3.61092,3.69206 -6.32925,3.69206c-4.01664,0 -7.26241,-3.24577 -7.26241,-7.26241s3.24577,-7.26241 7.26241,-7.26241c2.71833,0 5.07151,1.50117 6.32925,3.69206l6.93783,-3.85435c-2.59662,-4.62522 -7.58699,-7.78985 -13.26708,-7.78985c-8.39843,0 -15.21454,6.81612 -15.21454,15.21454c0,8.39843 6.81612,15.21454 15.21454,15.21454c5.72067,0 10.67047,-3.12405 13.26708,-7.78985l-6.93783,-3.85435l0,0.00002z"/>
    <rect stroke="null" id="svg_5" height="42.479" width="8.68243" y="6.2892" x="93.87"/>
    <polygon stroke="null" id="svg_6" points="172.62045288085938,6.2891998291015625 172.62045288085938,48.76820373535156 181.30291748046875,48.76820373535156 181.30291748046875,36.02854919433594 191.60821533203125,48.76820373535156 202.7249755859375,48.76820373535156 189.62020874023438,33.634796142578125 201.75125122070312,19.515701293945312 191.121337890625,19.515701293945312 181.30291748046875,31.241058349609375 181.30291748046875,6.2891998291015625 "/>
    <path stroke="null" id="svg_7" d="m128.35629,37.77316c-1.25774,2.06918 -3.85435,3.61092 -6.77554,3.61092c-4.01664,0 -7.26241,-3.24577 -7.26241,-7.26241s3.24577,-7.26241 7.26241,-7.26241c2.92119,0 5.51781,1.62288 6.77554,3.73263l0,7.18126l0,0.00001zm0,-18.25745l0,3.44863c-1.42002,-2.39375 -4.9498,-4.05721 -8.64186,-4.05721c-7.62756,0 -13.63223,6.73497 -13.63223,15.17397c0,8.439 6.00467,15.25512 13.63223,15.25512c3.69206,0 7.22184,-1.66346 8.64186,-4.05721l0,3.44863l8.68243,0l0,-29.21192l-8.68243,0l0,-0.00001z"/>
   </g>
   <g stroke="null" id="svg_8">
    <g class="cls-1" stroke="null" id="svg_9">
     <path stroke="null" id="svg_10" d="m12.07661,37.73259c0,2.96176 -2.39375,5.35552 -5.35552,5.35552s-5.35552,-2.39375 -5.35552,-5.35552s2.39375,-5.35552 5.35552,-5.35552l5.35552,0l0,5.35552z"/>
     <path stroke="null" id="svg_11" d="m14.75437,37.73259c0,-2.96176 2.39375,-5.35552 5.35552,-5.35552s5.35552,2.39375 5.35552,5.35552l0,13.3888c0,2.96176 -2.39375,5.35552 -5.35552,5.35552s-5.35552,-2.39375 -5.35552,-5.35552l0,-13.3888z"/>
    </g>
    <g stroke="null" id="svg_12" class="cls-1">
     <path stroke="null" id="svg_13" d="m20.10989,16.22936c-2.96176,0 -5.35552,-2.39375 -5.35552,-5.35552c0,-2.96176 2.39375,-5.35552 5.35552,-5.35552s5.35552,2.39375 5.35552,5.35552l0,5.35552l-5.35552,0z"/>
     <path stroke="null" id="svg_14" d="m20.10989,18.94769c2.96176,0 5.35552,2.39375 5.35552,5.35552c0,2.96176 -2.39375,5.35552 -5.35552,5.35552l-13.42937,0c-2.96176,0 -5.35552,-2.39375 -5.35552,-5.35552c0,-2.96176 2.39375,-5.35552 5.35552,-5.35552l13.42937,0z"/>
    </g>
    <g stroke="null" id="svg_15" class="cls-1">
     <path stroke="null" id="svg_16" d="m41.57254,24.30322c0,-2.96176 2.39375,-5.35552 5.35552,-5.35552s5.35552,2.39375 5.35552,5.35552c0,2.96176 -2.39375,5.35552 -5.35552,5.35552l-5.35552,0l0,-5.35552z"/>
     <path stroke="null" id="svg_17" d="m38.89478,24.30322c0,2.96176 -2.39375,5.35552 -5.35552,5.35552s-5.35552,-2.39375 -5.35552,-5.35552l0,-13.42937c0,-2.96176 2.39375,-5.35552 5.35552,-5.35552s5.35552,2.39375 5.35552,5.35552l0,13.42937z"/>
    </g>
    <g stroke="null" id="svg_18" class="cls-1">
     <path stroke="null" id="svg_19" d="m33.53926,45.76586c2.96176,0 5.35552,2.39375 5.35552,5.35552c0,2.96176 -2.39375,5.35552 -5.35552,5.35552s-5.35552,-2.39375 -5.35552,-5.35552l0,-5.35552l5.35552,0z"/>
     <path stroke="null" id="svg_20" d="m33.53926,43.0881c-2.96176,0 -5.35552,-2.39375 -5.35552,-5.35552s2.39375,-5.35552 5.35552,-5.35552l13.42937,0c2.96176,0 5.35552,2.39375 5.35552,5.35552s-2.39375,5.35552 -5.35552,5.35552l-13.42937,0z"/>
    </g>
   </g>
  </g>
 </g>
</svg>