<svg xmlns="http://www.w3.org/2000/svg" viewBox="0 0 58.47 47.52"><defs><style>.cls-1{fill:#8d8d8d;}</style></defs><title>layer1</title><g id="Layer_2" data-name="Layer 2"><g id="Layer_1-2" data-name="Layer 1"><g id="layer1"><path id="path3611" class="cls-1" d="M18.39,47.52c22.07,0,34.13-18.28,34.13-34.13,0-.52,0-1,0-1.55a24.51,24.51,0,0,0,6-6.21,24.06,24.06,0,0,1-6.89,1.88A12,12,0,0,0,56.86.88a24.23,24.23,0,0,1-7.62,2.91A12,12,0,0,0,28.49,12a11.72,11.72,0,0,0,.31,2.73A34.06,34.06,0,0,1,4.07,2.2a12,12,0,0,0,3.71,16,11.92,11.92,0,0,1-5.43-1.5v.16A12,12,0,0,0,12,28.63a11.94,11.94,0,0,1-5.42.2,12,12,0,0,0,11.21,8.33A24.05,24.05,0,0,1,2.86,42.3,24.54,24.54,0,0,1,0,42.13a33.89,33.89,0,0,0,18.39,5.39"/></g></g></g></svg>